<svg width="147" height="75" viewBox="0 0 147 75" fill="none" xmlns="http://www.w3.org/2000/svg">
<path d="M2.168 34V0.399998H8.504V14.272H20.984V0.399998H27.32V34H20.984V20.032H8.504V34H2.168ZM31.364 34L40.196 0.399998H51.236L60.068 34H53.54L51.716 26.608H39.716L37.892 34H31.364ZM41.204 20.752H50.228L46.148 4.384H45.284L41.204 20.752ZM13.832 74.672C11.24 74.672 8.952 74.208 6.968 73.28C4.984 72.352 3.432 71.024 2.312 69.296C1.192 67.568 0.632 65.488 0.632 63.056V61.712H6.872V63.056C6.872 65.072 7.496 66.592 8.744 67.616C9.992 68.608 11.688 69.104 13.832 69.104C16.008 69.104 17.624 68.672 18.68 67.808C19.768 66.944 20.312 65.84 20.312 64.496C20.312 63.568 20.04 62.816 19.496 62.24C18.984 61.664 18.216 61.2 17.192 60.848C16.2 60.464 14.984 60.112 13.544 59.792L12.44 59.552C10.136 59.04 8.152 58.4 6.488 57.632C4.856 56.832 3.592 55.792 2.696 54.512C1.832 53.232 1.4 51.568 1.4 49.52C1.4 47.472 1.88 45.728 2.84 44.288C3.832 42.816 5.208 41.696 6.968 40.928C8.76 40.128 10.856 39.728 13.256 39.728C15.656 39.728 17.784 40.144 19.64 40.976C21.528 41.776 23 42.992 24.056 44.624C25.144 46.224 25.688 48.24 25.688 50.672V52.112H19.448V50.672C19.448 49.392 19.192 48.368 18.68 47.6C18.2 46.8 17.496 46.224 16.568 45.872C15.64 45.488 14.536 45.296 13.256 45.296C11.336 45.296 9.912 45.664 8.984 46.4C8.088 47.104 7.64 48.08 7.64 49.328C7.64 50.16 7.848 50.864 8.264 51.44C8.712 52.016 9.368 52.496 10.232 52.88C11.096 53.264 12.2 53.6 13.544 53.888L14.648 54.128C17.048 54.64 19.128 55.296 20.888 56.096C22.68 56.896 24.072 57.952 25.064 59.264C26.056 60.576 26.552 62.256 26.552 64.304C26.552 66.352 26.024 68.16 24.968 69.728C23.944 71.264 22.472 72.48 20.552 73.376C18.664 74.24 16.424 74.672 13.832 74.672ZM31.2774 74V40.4H45.1014C47.2134 40.4 49.0694 40.832 50.6694 41.696C52.3014 42.528 53.5654 43.712 54.4614 45.248C55.3894 46.784 55.8534 48.608 55.8534 50.72V51.392C55.8534 53.472 55.3734 55.296 54.4134 56.864C53.4854 58.4 52.2054 59.6 50.5734 60.464C48.9734 61.296 47.1494 61.712 45.1014 61.712H37.6134V74H31.2774ZM37.6134 55.952H44.4774C45.9814 55.952 47.1974 55.536 48.1254 54.704C49.0534 53.872 49.5174 52.736 49.5174 51.296V50.816C49.5174 49.376 49.0534 48.24 48.1254 47.408C47.1974 46.576 45.9814 46.16 44.4774 46.16H37.6134V55.952ZM73.3021 74.672C69.0781 74.672 65.7181 73.52 63.2221 71.216C60.7261 68.88 59.4781 65.552 59.4781 61.232V53.168C59.4781 48.848 60.7261 45.536 63.2221 43.232C65.7181 40.896 69.0781 39.728 73.3021 39.728C77.5261 39.728 80.8861 40.896 83.3821 43.232C85.8781 45.536 87.1261 48.848 87.1261 53.168V61.232C87.1261 65.552 85.8781 68.88 83.3821 71.216C80.8861 73.52 77.5261 74.672 73.3021 74.672ZM73.3021 69.008C75.6701 69.008 77.5101 68.32 78.8221 66.944C80.1341 65.568 80.7901 63.728 80.7901 61.424V52.976C80.7901 50.672 80.1341 48.832 78.8221 47.456C77.5101 46.08 75.6701 45.392 73.3021 45.392C70.9661 45.392 69.1261 46.08 67.7821 47.456C66.4701 48.832 65.8141 50.672 65.8141 52.976V61.424C65.8141 63.728 66.4701 65.568 67.7821 66.944C69.1261 68.32 70.9661 69.008 73.3021 69.008ZM92.6836 74V40.4H107.276C109.388 40.4 111.228 40.768 112.796 41.504C114.364 42.24 115.58 43.28 116.444 44.624C117.308 45.968 117.74 47.552 117.74 49.376V49.952C117.74 51.968 117.26 53.6 116.3 54.848C115.34 56.096 114.156 57.008 112.748 57.584V58.448C114.028 58.512 115.02 58.96 115.724 59.792C116.428 60.592 116.78 61.664 116.78 63.008V74H110.444V63.92C110.444 63.152 110.236 62.528 109.82 62.048C109.436 61.568 108.78 61.328 107.852 61.328H99.0196V74H92.6836ZM99.0196 55.568H106.604C108.108 55.568 109.276 55.168 110.108 54.368C110.972 53.536 111.404 52.448 111.404 51.104V50.624C111.404 49.28 110.988 48.208 110.156 47.408C109.324 46.576 108.14 46.16 106.604 46.16H99.0196V55.568ZM130.225 74V46.16H120.433V40.4H146.353V46.16H136.561V74H130.225Z" fill="#07272E"/>
</svg>
