<svg width="40" height="39" viewBox="0 0 40 39" fill="none" xmlns="http://www.w3.org/2000/svg">
<path d="M15.7097 1.65625C19.2839 1.65631 22.3091 2.85162 24.8132 5.24707L25.0535 5.48242C27.6022 8.03622 28.8738 11.1456 28.8738 14.8408C28.8737 16.3306 28.6376 17.7292 28.1677 19.04C27.6943 20.3606 27.0546 21.522 26.2507 22.5283L25.9714 22.8779L26.2878 23.1934L38.113 35.0361C38.4016 35.3253 38.5447 35.6705 38.5447 36.1035C38.5447 36.5238 38.3932 36.8902 38.0603 37.2236C37.7778 37.5066 37.4185 37.6562 36.9421 37.6562C36.4659 37.6562 36.1074 37.5065 35.825 37.2236L24.0515 25.4346L23.7351 25.1172L23.3855 25.3975C22.3807 26.2025 21.2207 26.8434 19.9021 27.3174C18.5933 27.7878 17.1971 28.0244 15.7097 28.0244C12.0205 28.0244 8.91659 26.7513 6.36792 24.1992C3.81777 21.6454 2.54476 18.5359 2.54468 14.8408C2.54468 11.1456 3.81769 8.03628 6.36792 5.48242C8.91666 2.93009 12.0203 1.65625 15.7097 1.65625ZM15.7097 4.86719C12.9507 4.86719 10.589 5.83928 8.65405 7.77539H8.65308C6.71964 9.71307 5.74878 12.0785 5.74878 14.8408C5.74886 17.603 6.71981 19.9677 8.65308 21.9053H8.65405C10.589 23.8415 12.9506 24.8145 15.7097 24.8145C18.2963 24.8144 20.5333 23.9591 22.3972 22.2568L22.7654 21.9053C24.6988 19.9677 25.6696 17.603 25.6697 14.8408C25.6697 12.251 24.8168 10.0101 23.1169 8.14355L22.7654 7.77539C20.8305 5.83922 18.4687 4.86725 15.7097 4.86719Z" fill="#07272E" stroke="black"/>
</svg>
