<svg width="20" height="20" viewBox="0 0 20 20" fill="none" xmlns="http://www.w3.org/2000/svg">
<path d="M14.7266 -6.10352e-05H5.27344C2.36572 -6.10352e-05 0 2.36566 0 5.27338V14.7265C0 17.6342 2.36572 19.9999 5.27344 19.9999H14.7266C17.6343 19.9999 20 17.6342 20 14.7265V5.27338C20 2.36566 17.6343 -6.10352e-05 14.7266 -6.10352e-05ZM16.4844 12.9687C16.4844 14.9072 14.9072 16.4843 12.9688 16.4843H7.03125C5.09277 16.4843 3.51562 14.9072 3.51562 12.9687V7.03119C3.51562 5.09271 5.09277 3.51556 7.03125 3.51556H12.9688C14.9072 3.51556 16.4844 5.09271 16.4844 7.03119V12.9687Z" fill="white"/>
</svg>
