<svg width="38" height="37" viewBox="0 0 38 37" fill="none" xmlns="http://www.w3.org/2000/svg">
<path d="M8.01093 27.935C9.58343 26.7325 11.3409 25.7841 13.2834 25.0897C15.2259 24.3966 17.2609 24.05 19.3884 24.05C21.5159 24.05 23.5509 24.3966 25.4934 25.0897C27.4359 25.7841 29.1934 26.7325 30.7659 27.935C31.8451 26.6708 32.6856 25.2371 33.2875 23.6337C33.8881 22.0304 34.1884 20.3192 34.1884 18.5C34.1884 14.3992 32.7473 10.907 29.865 8.02345C26.9814 5.14115 23.4893 3.7 19.3884 3.7C15.2876 3.7 11.796 5.14115 8.91373 8.02345C6.03019 10.907 4.58843 14.3992 4.58843 18.5C4.58843 20.3192 4.88936 22.0304 5.49123 23.6337C6.09186 25.2371 6.93176 26.6708 8.01093 27.935ZM19.3884 20.35C17.5693 20.35 16.035 19.7259 14.7856 18.4778C13.5375 17.2284 12.9134 15.6942 12.9134 13.875C12.9134 12.0558 13.5375 10.5216 14.7856 9.2722C16.035 8.02407 17.5693 7.4 19.3884 7.4C21.2076 7.4 22.7419 8.02407 23.9912 9.2722C25.2394 10.5216 25.8634 12.0558 25.8634 13.875C25.8634 15.6942 25.2394 17.2284 23.9912 18.4778C22.7419 19.7259 21.2076 20.35 19.3884 20.35ZM19.3884 37C16.8293 37 14.4243 36.5141 12.1734 35.5422C9.9226 34.5716 7.96468 33.2538 6.29968 31.5888C4.63468 29.9238 3.31686 27.9658 2.34623 25.715C1.37436 23.4642 0.888428 21.0592 0.888428 18.5C0.888428 15.9408 1.37436 13.5358 2.34623 11.285C3.31686 9.03417 4.63468 7.07625 6.29968 5.41125C7.96468 3.74625 9.9226 2.42782 12.1734 1.45595C14.4243 0.485317 16.8293 0 19.3884 0C21.9476 0 24.3526 0.485317 26.6034 1.45595C28.8543 2.42782 30.8122 3.74625 32.4772 5.41125C34.1422 7.07625 35.46 9.03417 36.4306 11.285C37.4025 13.5358 37.8884 15.9408 37.8884 18.5C37.8884 21.0592 37.4025 23.4642 36.4306 25.715C35.46 27.9658 34.1422 29.9238 32.4772 31.5888C30.8122 33.2538 28.8543 34.5716 26.6034 35.5422C24.3526 36.5141 21.9476 37 19.3884 37Z" fill="#07272E"/>
</svg>
