<svg width="42" height="37" viewBox="0 0 42 37" fill="none" xmlns="http://www.w3.org/2000/svg">
<path d="M41.6331 9.10804C41.2487 8.55305 40.6177 8.22211 39.9435 8.22211H11.8506L9.47848 2.5283C8.83715 0.990764 7.34895 0 5.68397 0H0.888428V4.11106H5.68397L15.4354 27.5132C15.754 28.2779 16.5022 28.7774 17.3327 28.7774H33.7769C34.634 28.7774 35.4007 28.245 35.7029 27.4454L41.8695 11.0012C42.1059 10.3681 42.0175 9.66098 41.6331 9.10804ZM32.3524 24.6663H18.7037L13.5649 12.3332H36.9773L32.3524 24.6663Z" fill="#07272E"/>
<path d="M18.3606 36.9999C20.0635 36.9999 21.4439 35.6195 21.4439 33.9166C21.4439 32.2138 20.0635 30.8333 18.3606 30.8333C16.6578 30.8333 15.2773 32.2138 15.2773 33.9166C15.2773 35.6195 16.6578 36.9999 18.3606 36.9999Z" fill="#07272E"/>
<path d="M32.7488 36.9999C34.4517 36.9999 35.8321 35.6195 35.8321 33.9166C35.8321 32.2138 34.4517 30.8333 32.7488 30.8333C31.046 30.8333 29.6655 32.2138 29.6655 33.9166C29.6655 35.6195 31.046 36.9999 32.7488 36.9999Z" fill="#07272E"/>
</svg>
